<svg xmlns="http://www.w3.org/2000/svg" viewBox="0 0 300 150" width="100%" height="100%">
    <defs>
        <linearGradient id="cloudGrad" x1="0%" y1="0%" x2="100%" y2="100%">
            <stop offset="0%" stop-color="#f2ece4" stop-opacity="0.35" />
            <stop offset="100%" stop-color="#b7afb0" stop-opacity="0.1" />
        </linearGradient>
    </defs>
    <path d="M70,80 C50,80 40,65 50,50 C55,40 70,40 80,45 C85,30 100,25 115,35 C125,20 145,20 155,35 C170,25 185,35 185,55 C200,55 210,70 195,85 C205,100 190,110 175,105 C165,120 145,120 135,105 C120,115 100,115 90,105 C80,110 65,105 70,90 Z" fill="url(#cloudGrad)" stroke="#e8dfd8" stroke-width="1.2" stroke-opacity="0.5"/>
    <!-- 云尾飘带 -->
    <path d="M190,80 Q220,70 240,85 Q260,100 280,90" fill="none" stroke="#cbc0bc" stroke-width="1.5" stroke-opacity="0.35" stroke-linecap="round"/>
    <path d="M65,90 Q40,100 20,95" fill="none" stroke="#cbc0bc" stroke-width="1.5" stroke-opacity="0.35" stroke-linecap="round"/>
</svg>