<svg xmlns="http://www.w3.org/2000/svg" viewBox="0 0 400 200" width="100%" height="100%">
    <path d="M90,110 C70,90 80,60 110,70 C120,50 150,40 170,65 C190,45 230,50 240,80 C265,75 285,100 265,120 C280,140 250,155 230,140 C210,160 170,150 165,130 C140,135 115,130 110,115 C95,118 85,120 90,110 Z" fill="none" stroke="#e8dfd8" stroke-width="1.5" stroke-opacity="0.4"/>
    <circle cx="170" cy="90" r="4" fill="#b7afb0" opacity="0.2"/>
    <circle cx="210" cy="105" r="3" fill="#b7afb0" opacity="0.2"/>
    <path d="M250,110 Q280,95 310,115" fill="none" stroke="#cbc0bc" stroke-width="1" stroke-opacity="0.35" stroke-linecap="round"/>
</svg>