<svg xmlns="http://www.w3.org/2000/svg" viewBox="0 0 800 300" width="100%" height="100%">
    <defs>
        <linearGradient id="mountainGrad" x1="0%" y1="0%" x2="0%" y2="100%">
            <stop offset="0%" stop-color="#f2ece4" stop-opacity="0.25" />
            <stop offset="100%" stop-color="#b7afb0" stop-opacity="0.05" />
        </linearGradient>
    </defs>
    <!-- 远山层叠 -->
    <path d="M0,250 L80,140 L160,210 L240,110 L320,180 L400,80 L480,170 L560,100 L640,200 L720,130 L800,230 L800,300 L0,300 Z" fill="url(#mountainGrad)" stroke="#b7afb0" stroke-width="1" stroke-opacity="0.4"/>
    <!-- 山脊纹理 -->
    <path d="M80,140 L120,185 L160,210 M240,110 L280,150 L320,180 M400,80 L440,130 L480,170 M560,100 L600,160 L640,200 M720,130 L760,190 L800,230" fill="none" stroke="#f2ece4" stroke-width="1.2" stroke-opacity="0.3" stroke-dasharray="4 4"/>
</svg>